<svg xmlns="http://www.w3.org/2000/svg" viewBox="0 0 316.54 232.36">
  <defs>
    <style>
      .cls-1{fill:#7a7072}.cls-15,.cls-4{stroke:#000}.cls-14,.cls-15,.cls-4{stroke-linecap:round}.cls-14,.cls-4{stroke-linejoin:round}.cls-4{stroke-width:2.61px}.cls-5{fill:#aca29c}.cls-7{fill:#f3f3f2}.cls-8{fill:#6bceba}.cls-10{fill:#5d93ff}.cls-11{opacity:.1}.cls-14,.cls-15{fill:none}.cls-14{stroke:#aca29c;stroke-width:2px}.cls-15{stroke-miterlimit:10}
    </style>
    <clipPath id="clip-path">
      <path id="_Clipping_Path_" d="M167 71a71 71 0 1 0-107.86 60.67l-23 94.23a5.21 5.21 0 0 0 5.07 6.46h109.6a5.22 5.22 0 0 0 5.07-6.46l-23.05-94.23A70.93 70.93 0 0 0 167 71z" class="cls-1" data-name="&lt;Clipping Path&gt;"/>
    </clipPath>
  </defs>
  <g id="Layer_2" data-name="Layer 2">
    <g id="Layer_1-2" data-name="Layer 1">
      <path id="_Clipping_Path_2" d="M167 71a71 71 0 1 0-107.86 60.67l-23 94.23a5.21 5.21 0 0 0 5.07 6.46h109.6a5.22 5.22 0 0 0 5.07-6.46l-23.05-94.23A70.93 70.93 0 0 0 167 71z" class="cls-1" data-name="&lt;Clipping Path&gt;"/>
      <g clip-path="url(#clip-path)">
        <path id="_Path_" fill="#504b4b" d="M142 71a71 71 0 1 0-107.85 60.67l-23 94.23a5.21 5.21 0 0 0 5.07 6.46h109.6a5.22 5.22 0 0 0 5.07-6.46l-23-94.23A70.93 70.93 0 0 0 142 71z" data-name="&lt;Path&gt;"/>
      </g>
      <circle cx="160.17" cy="69.74" r="9.08" class="cls-4"/>
      <circle cx="128.42" cy="61.97" r="9.08" class="cls-4"/>
      <path d="M146.87 55.05l2.63-9.58-.77-.24a33.2 33.2 0 0 1-13.32 13.31l-.21.73-1.41 5.14-2.21 8-2.84 10.32 9.66 19 9.89-13.63c.82-3 1.65-6 2.47-9a8.37 8.37 0 0 0 4.24-1.76 8.21 8.21 0 0 0 2.4-3.08l2.19-8 2-7.21z" class="cls-5"/>
      <rect width="71.4" height="30.02" x="245.14" y="159.8" fill="#f38e7a" rx="15.01" ry="15.01"/>
      <circle cx="261.27" cy="174.81" r="10.25" class="cls-7"/>
      <rect width="71.4" height="30.02" x="245.14" y="78.72" class="cls-8" rx="15.01" ry="15.01"/>
      <circle cx="301" cy="93.73" r="10.25" class="cls-7"/>
      <rect width="71.4" height="30.02" x="245.14" y="118.35" class="cls-8" rx="15.01" ry="15.01"/>
      <circle cx="301" cy="133.36" r="10.25" class="cls-7"/>
      <path d="M148.73 45.23l.77.24-2.63 9.58 14.68 4-2 7.21a16 16 0 0 0 2-24.07A16 16 0 0 0 135 58.74c.07.17.14.34.2.51l.21-.73a33.2 33.2 0 0 0 13.32-13.29z"/>
      <path d="M260 159.46l9.49 1.31a9.06 9.06 0 0 0 8.61-3.72 1.39 1.39 0 0 0-.94-2.18L261 152.34z" class="cls-5"/>
      <path d="M262.49 160.69l8.14 5.05a9 9 0 0 0 9.57 0 1.29 1.29 0 0 0 0-2.17l-13.33-8.33z" class="cls-5"/>
      <path d="M273.86 164.22c-2.84-5.38-4-7.43-6.43-9.21a15.46 15.46 0 0 0-6.48-2.67H219v24l24.88-2.18a48.89 48.89 0 0 0 7.24 2.95 50.29 50.29 0 0 0 16.45 2.29 1.13 1.13 0 0 0 1-1.48 5.79 5.79 0 0 0-.14-.75 3.78 3.78 0 0 0-.8-1.28c-1.11-1.11-6.57-3.41-9.64-5.07-1.76-1-2.88-1.78-3-2.94a2.3 2.3 0 0 1 .49-1.65c1.55-1.78 7.46-.79 11.67 2.41 2.15 1.63 5.65 5.2 8.31 6.27a4.74 4.74 0 0 0 1.85.1 1.34 1.34 0 0 0 1.13-1.94c-1.15-2.3-2.71-5.32-4.58-8.85z" class="cls-5"/>
      <path fill="#d8d4ce" d="M147.81 190.08l12.75 3.84 5.58-35.83 7.43 14.63a15.88 15.88 0 0 0 7.18 7.07l.22.1c.16.08.31.16.48.23a15.7 15.7 0 0 0 6.91 1.6h17.85V185h13.28v-35.13h-21.81l-23.27-45.83a15.43 15.43 0 0 0-.86-1.48 14.94 14.94 0 0 0-1.31-3.3A16 16 0 0 0 163 91.7l-14.53-3.82q-5 6.93-10 13.85l-10.22-19.92-16.77-5.6a15.45 15.45 0 0 0-7.25-.41 15.55 15.55 0 0 0-2.86.8C91.18 79.52 56.84 89.68 35.78 100a16 16 0 0 0-3.78 1.8 71.31 71.31 0 0 0 23 27.19l.42-3.55c11.85-3.55 20.13-5.92 27.33-8L68.09 166.1l6.51 2"/>
      <path d="M147.02 189.85l-72.38-21.78 72.38 21.78zM155.84 225.9l-7-28.53L73.69 174l-7 58.34h38.57l3.62-30.1 9.45 30.1h32.46a5.22 5.22 0 0 0 5.05-6.44z" class="cls-10"/>
      <path d="M74.64 168.07l-.41 1.73c-.06.4-.46 3.82-.53 4.22l.38-3.15a18.52 18.52 0 0 1 .56-2.8z" class="cls-11"/>
      <path d="M147 189.85l-72.36-21.78a18.52 18.52 0 0 0-.57 2.8l-.38 3.13 75.17 23.35z" class="cls-10"/>
      <path d="M147 189.85l-72.36-21.78a18.52 18.52 0 0 0-.57 2.8l-.38 3.13 75.17 23.35z" class="cls-11"/>
      <path fill="#fff" stroke="#000" stroke-linecap="round" stroke-linejoin="round" stroke-width="1.3" d="M152.22 72.82a6.63 6.63 0 0 1-5.3-2"/>
      <path fill="none" stroke="#000" stroke-linecap="round" stroke-linejoin="round" stroke-width="1.3" d="M153.51 62.73l-1.45 5.29-2.49-.69"/>
      <circle cx="148" cy="62.18" r=".75"/>
      <circle cx="156.8" cy="64.6" r=".75"/>
      <path d="M128.74 82.78l-.49-.97-7.15 8.16 7.54 5.12 9.76 6.64-9.66-18.95zM143.45 99.83l8.78-3.3-3.79-8.65-.15.22-9.89 13.63 5.05-1.9z" class="cls-7"/>
      <path d="M138.4 101.73l-.91 11.22" class="cls-14"/>
      <path d="M166.14 158.09l6.74-43.27 1.78 60.05-8.52-16.78z" class="cls-11"/>
      <path d="M274.88 166.15a44.54 44.54 0 0 0-7.88-4.88 43.38 43.38 0 0 0-6.68-2.6" class="cls-15"/>
      <path d="M206.21 152.03v28.83" class="cls-14"/>
      <path d="M74.49 144.84l30.69-34.29-22.47 6.96-8.22 27.33z" class="cls-11"/>
      <path d="M53.81 126.22l51.37-16.67" class="cls-14"/>
      <path d="M150.76 79.1a25.71 25.71 0 0 1-4.8.13c-.46 0-.91-.08-1.34-.13q1.9 4.4 3.82 8.78z"/>
      <path d="M274.5 160a51.52 51.52 0 0 0-5.06-2.89 53.31 53.31 0 0 0-8.27-3.3" class="cls-15"/>
      <path fill="#aca29c" stroke="#000" stroke-linecap="round" stroke-miterlimit="10" stroke-width="1.3" d="M132.91 67.91a5.14 5.14 0 1 1 3.3-9.73"/>
      <path fill="none" d="M132.79 131.67A71 71 0 1 0 29.43 95.73l5.07-3.67a93 93 0 0 0 33.33 40.19l-10.91 8.49L36.1 225.9a5.21 5.21 0 0 0 5.07 6.46h109.6a5.22 5.22 0 0 0 5.07-6.46z"/>
      <path d="M47.5 113.58a92.64 92.64 0 0 1-13-21.52l-5.07 3.67a71.27 71.27 0 0 0 29.71 35.94l-2.22 9.07 10.91-8.49a92.79 92.79 0 0 1-20.33-18.67z" class="cls-11"/>
    </g>
  </g>
</svg>
