<svg id="Layer_1" data-name="Layer 1" xmlns="http://www.w3.org/2000/svg" xmlns:xlink="http://www.w3.org/1999/xlink" width="400" height="250" viewBox="0 0 400 250"><defs><style>.cls-1{fill:#f8eadd;}.cls-2,.cls-8{fill:#d8d4ce;}.cls-3{fill:#f3f3f2;}.cls-4{fill:#fff;}.cls-5{clip-path:url(#clip-path);}.cls-6{fill:#f3dfc4;}.cls-16,.cls-6,.cls-8{stroke:#f3f3f2;}.cls-14,.cls-16,.cls-18,.cls-20,.cls-24,.cls-6,.cls-8,.cls-9{stroke-miterlimit:10;stroke-width:2px;}.cls-7{clip-path:url(#clip-path-2);}.cls-14,.cls-16,.cls-17,.cls-18,.cls-20,.cls-24,.cls-9{fill:none;}.cls-14,.cls-9{stroke:#d8d4ce;}.cls-18,.cls-24,.cls-9{stroke-linecap:round;}.cls-10{fill:#c2bbb5;}.cls-11{clip-path:url(#clip-path-3);}.cls-12{fill:#eed4bd;}.cls-13{clip-path:url(#clip-path-4);}.cls-15{clip-path:url(#clip-path-5);}.cls-18,.cls-20{stroke:#c2bbb5;}.cls-19{fill:#aca29c;}.cls-21{fill:#7a7072;}.cls-22{fill:#504b4b;}.cls-23{fill:#93b7ff;}.cls-24{stroke:#7a7072;}</style><clipPath id="clip-path"><path class="cls-1" d="M250.42,132.31a41.14,41.14,0,0,0-3.32-9.91L224.52,65.48H195.21l-16.13,48.3h0a33.13,33.13,0,0,0-1.37,18.53c4,20.17,23.49,36.52,43.56,36.52S254.41,152.48,250.42,132.31Z"/></clipPath><clipPath id="clip-path-2"><path class="cls-2" d="M98.05,226.77H30.31L98.05,159ZM84.58,213.31V191.54L62.82,213.31Z"/></clipPath><clipPath id="clip-path-3"><polygon class="cls-2" points="315.51 190.18 139.42 190.18 103.49 79.29 279.58 79.29 315.51 190.18"/></clipPath><clipPath id="clip-path-4"><path class="cls-3" d="M297.42,181.55H168.84c-6.59,0-13.66-5.34-15.8-11.93l-26.8-82.71H266.75Z"/></clipPath><clipPath id="clip-path-5"><path class="cls-4" d="M250.42,132.31a41.14,41.14,0,0,0-3.32-9.91L224.52,65.48H195.21l-16.13,48.3h0a33.13,33.13,0,0,0-1.37,18.53c4,20.17,23.49,36.52,43.56,36.52S254.41,152.48,250.42,132.31Z"/></clipPath></defs><title>No Drafts - Large</title><path class="cls-1" d="M250.42,132.31a41.14,41.14,0,0,0-3.32-9.91L224.52,65.48H195.21l-16.13,48.3h0a33.13,33.13,0,0,0-1.37,18.53c4,20.17,23.49,36.52,43.56,36.52S254.41,152.48,250.42,132.31Z"/><g class="cls-5"><line class="cls-6" x1="143.83" y1="158.52" x2="291.9" y2="158.52"/><line class="cls-6" x1="135.96" y1="134.23" x2="284.02" y2="134.23"/><line class="cls-6" x1="128.09" y1="109.93" x2="276.15" y2="109.93"/><line class="cls-6" x1="243.6" y1="85.63" x2="275.09" y2="182.82"/><line class="cls-6" x1="218.92" y1="85.63" x2="250.42" y2="182.82"/><line class="cls-6" x1="194.25" y1="85.63" x2="225.74" y2="182.82"/><line class="cls-6" x1="169.57" y1="85.63" x2="201.06" y2="182.82"/><line class="cls-6" x1="144.89" y1="85.63" x2="176.38" y2="182.82"/></g><rect class="cls-3" x="342.55" y="144.78" width="10.78" height="80.97"/><rect class="cls-3" x="358.43" y="148.18" width="10.78" height="78.49" transform="translate(-25.33 60.71) rotate(-9.22)"/><path class="cls-2" d="M98.05,226.77H30.31L98.05,159ZM84.58,213.31V191.54L62.82,213.31Z"/><g class="cls-7"><rect class="cls-2" x="59.16" y="144.9" width="9.57" height="96.47" transform="translate(155.3 11.35) rotate(45)"/><line class="cls-8" x1="36.82" y1="220.26" x2="40.31" y2="223.75"/><line class="cls-8" x1="41.81" y1="215.27" x2="45.3" y2="218.77"/><line class="cls-8" x1="46.79" y1="210.29" x2="50.29" y2="213.78"/><line class="cls-8" x1="51.78" y1="205.3" x2="55.27" y2="208.79"/><line class="cls-8" x1="56.77" y1="200.32" x2="60.26" y2="203.81"/><line class="cls-8" x1="61.75" y1="195.33" x2="65.25" y2="198.82"/><line class="cls-8" x1="66.74" y1="190.34" x2="70.23" y2="193.84"/><line class="cls-8" x1="71.73" y1="185.36" x2="75.22" y2="188.85"/><line class="cls-8" x1="76.71" y1="180.37" x2="80.21" y2="183.86"/><line class="cls-8" x1="81.7" y1="175.38" x2="85.19" y2="178.88"/><line class="cls-8" x1="86.69" y1="170.4" x2="90.18" y2="173.89"/><line class="cls-8" x1="91.67" y1="165.41" x2="95.16" y2="168.9"/></g><rect class="cls-3" x="44.02" y="92.59" width="19.26" height="30.35"/><rect class="cls-3" x="67.54" y="92.59" width="19.26" height="30.35"/><rect class="cls-3" x="91.15" y="92.59" width="19.26" height="30.35"/><rect class="cls-3" x="44.02" y="24.37" width="19.26" height="30.35"/><rect class="cls-3" x="67.54" y="24.37" width="19.26" height="30.35"/><rect class="cls-3" x="44.02" y="58.5" width="19.26" height="30.35"/><rect class="cls-3" x="67.54" y="58.5" width="19.26" height="30.35"/><rect class="cls-3" x="91.15" y="24.37" width="19.26" height="30.35"/><rect class="cls-3" x="91.15" y="58.5" width="19.26" height="30.35"/><line class="cls-9" x1="244.95" y1="148.87" x2="244.95" y2="225.75"/><circle class="cls-10" cx="209.86" cy="41.95" r="3.7"/><line class="cls-9" x1="111.98" y1="180.29" x2="136.18" y2="180.29"/><line class="cls-9" x1="141.33" y1="163.68" x2="164" y2="225.75"/><line class="cls-9" x1="111.98" y1="148.87" x2="111.98" y2="225.75"/><line class="cls-9" x1="18.15" y1="225.75" x2="383.99" y2="225.75"/><circle class="cls-2" cx="135.45" cy="134.23" r="32.25"/><line class="cls-9" x1="244.95" y1="180.29" x2="269.16" y2="180.29"/><polygon class="cls-10" points="311.22 190.18 135.13 190.18 99.2 79.29 101.03 79.29 275.29 79.29 311.22 190.18"/><polygon class="cls-2" points="315.51 190.18 139.42 190.18 103.49 79.29 279.58 79.29 315.51 190.18"/><g class="cls-11"><path class="cls-12" d="M250.42,132.31a41.14,41.14,0,0,0-3.32-9.91L224.52,65.48H195.21l-16.13,48.3h0a33.13,33.13,0,0,0-1.37,18.53c4,20.17,23.49,36.52,43.56,36.52S254.41,152.48,250.42,132.31Z"/></g><path class="cls-3" d="M297.42,181.55H168.84c-6.59,0-13.66-5.34-15.8-11.93l-26.8-82.71H266.75Z"/><g class="cls-13"><line class="cls-14" x1="143.83" y1="158.52" x2="291.9" y2="158.52"/><line class="cls-14" x1="135.96" y1="134.23" x2="284.02" y2="134.23"/><line class="cls-14" x1="128.09" y1="109.93" x2="276.15" y2="109.93"/><line class="cls-14" x1="243.6" y1="85.63" x2="275.09" y2="182.82"/><line class="cls-14" x1="218.92" y1="85.63" x2="250.42" y2="182.82"/><line class="cls-14" x1="194.25" y1="85.63" x2="225.74" y2="182.82"/><line class="cls-14" x1="169.57" y1="85.63" x2="201.06" y2="182.82"/><line class="cls-14" x1="144.89" y1="85.63" x2="176.38" y2="182.82"/><path class="cls-4" d="M250.42,132.31a41.14,41.14,0,0,0-3.32-9.91L224.52,65.48H195.21l-16.13,48.3h0a33.13,33.13,0,0,0-1.37,18.53c4,20.17,23.49,36.52,43.56,36.52S254.41,152.48,250.42,132.31Z"/><g class="cls-15"><line class="cls-16" x1="143.83" y1="158.52" x2="291.9" y2="158.52"/><line class="cls-16" x1="135.96" y1="134.23" x2="284.02" y2="134.23"/><line class="cls-16" x1="128.09" y1="109.93" x2="276.15" y2="109.93"/><line class="cls-16" x1="243.6" y1="85.63" x2="275.09" y2="182.82"/><line class="cls-16" x1="218.92" y1="85.63" x2="250.42" y2="182.82"/><line class="cls-16" x1="194.25" y1="85.63" x2="225.74" y2="182.82"/><line class="cls-16" x1="169.57" y1="85.63" x2="201.06" y2="182.82"/><line class="cls-16" x1="144.89" y1="85.63" x2="176.38" y2="182.82"/></g></g><path class="cls-4" d="M126.24,86.91c-2.12-6.54,1.46-11.83,8-11.83l26.83,82.81c-6.53,0-10.11,5.29-8,11.83Z"/><rect class="cls-17" width="400" height="250" transform="translate(400 250) rotate(-180)"/><line class="cls-18" x1="136.42" y1="190.18" x2="321.09" y2="190.18"/><path class="cls-2" d="M213.56,46.7V42h-7.39V46.7a7.48,7.48,0,0,1-5.48,7.21h0a7.48,7.48,0,0,0-5.48,7.21v4.36h29.31V61.12A7.48,7.48,0,0,0,219,53.91h0A7.48,7.48,0,0,1,213.56,46.7Z"/><line class="cls-18" x1="209.86" y1="14.89" x2="209.86" y2="40.98"/><rect class="cls-1" x="310.36" y="108.24" width="10.24" height="110.87" transform="translate(14.8 -25.82) rotate(4.8)"/><rect class="cls-12" x="310.35" y="108.66" width="20.19" height="110.87" transform="translate(14.85 -26.23) rotate(4.8)"/><rect class="cls-1" x="310.36" y="108.24" width="10.24" height="110.87" transform="translate(14.8 -25.82) rotate(4.8)"/><rect class="cls-19" x="305.9" y="208.57" width="20.19" height="16.83" transform="translate(19.26 -25.68) rotate(4.8)"/><path class="cls-10" d="M304.72,225.35h20.19a0,0,0,0,1,0,0v7.84a3.6,3.6,0,0,1-3.6,3.6h-13a3.6,3.6,0,0,1-3.6-3.6v-7.84a0,0,0,0,1,0,0Z" transform="matrix(1, 0.08, -0.08, 1, 20.44, -25.53)"/><polygon class="cls-2" points="315.02 108.01 327.27 82.85 335.15 109.7 315.02 108.01"/><line class="cls-20" x1="306.13" y1="213.86" x2="326.25" y2="215.55"/><line class="cls-20" x1="305.68" y1="219.19" x2="325.81" y2="220.88"/><polygon class="cls-19" points="327.27 82.85 321.6 94.51 330.89 95.2 327.27 82.85"/><rect class="cls-21" x="285.62" y="110.22" width="6.24" height="8.92" transform="translate(-0.13 0.32) rotate(-0.06)"/><polygon class="cls-22" points="285.62 111.49 285.62 115.2 286.75 113.26 285.62 111.49"/><path class="cls-21" d="M283.19,107.64a7.58,7.58,0,0,0,.91-1,8.07,8.07,0,0,0,.7-1.15l.22-.55a4.39,4.39,0,0,1,5.26-2.54,4,4,0,0,1,2.82,5.25l-1.18,3a4.4,4.4,0,0,1-5.42,2.5,4,4,0,0,1-2.81-4.74Z"/><path class="cls-10" d="M287.15,102.64a4.09,4.09,0,0,0,1.05,4.88,1.15,1.15,0,0,1,1,.84,1.17,1.17,0,0,1-.42,1.18,1.28,1.28,0,0,1-1,.26,3.19,3.19,0,0,0,.78,1.69,3.36,3.36,0,0,0,2.32,1.06,8.61,8.61,0,0,0,2.75-4.67,5,5,0,0,0-.38-3.92,4.85,4.85,0,0,0-4.63-1.79A4.9,4.9,0,0,0,287.15,102.64Z"/><polygon class="cls-19" points="281.94 117.54 293.94 118.09 292.56 122.49 283.63 122.5 281.94 117.54"/><polygon class="cls-21" points="261.44 154.1 270.54 164.61 273.57 155.76 267.88 148.7 261.44 154.1"/><path class="cls-21" d="M324.75,129.33l2.63-4.85a13.55,13.55,0,0,0,.82-1.88l1.8-5.22a.9.9,0,0,0-.35-1h0a.94.94,0,0,1-.39-.85l.07-.65a.88.88,0,0,0-.64-1h0a1.13,1.13,0,0,0-.88.14l-.2-.33a1.09,1.09,0,0,0-1.3-.47l-.54.19h0a1,1,0,0,0-1.67,0,2.35,2.35,0,0,0-.26.48l-1.26,2.23-5.16,9.06Z"/><path class="cls-21" d="M267.16,160.4l-.69.7a1.57,1.57,0,0,0-.17,2l1.38,2a1.6,1.6,0,0,0,2.86-.47h0Z"/><path class="cls-21" d="M261.4,219.76l-1,7.72c-.07.58-3.74,2.69-5.93,3.8a3.82,3.82,0,0,0-2,2.78,13.39,13.39,0,0,1-.47,2.29l11.2-.19s3.52-1.85,3.43-1l-.09,1,3.49-.07q1.24-8.69,2.48-17.36Z"/><rect class="cls-21" x="285.83" y="226.93" width="10.64" height="9.13" transform="translate(-0.26 0.32) rotate(-0.06)"/><path class="cls-21" d="M294.22,236.06H283.58a3,3,0,0,1,.86-2.16.47.47,0,0,0,.1-.1,5.19,5.19,0,0,0,1.29-3.06h8.39Z"/><polygon class="cls-23" points="296.97 144.78 285.96 147.6 274.57 145.17 259 227.01 272.55 227.44 285.86 156.87 284.7 226.95 297.94 226.88 296.97 144.78"/><path class="cls-21" d="M324.66,125a4.55,4.55,0,0,0-2.54-5.18h0l.45-2.42a2.39,2.39,0,0,0-1.09-2.49h0a.84.84,0,0,0-1.26.48l-2.82,9.74,6.38,3.63"/><path class="cls-19" d="M310.64,124.29h9.63a0,0,0,0,1,0,0v22.36a4.82,4.82,0,0,1-4.82,4.82h0a4.82,4.82,0,0,1-4.82-4.82V124.29a0,0,0,0,1,0,0Z" transform="translate(94.05 -125.75) rotate(26.37)"/><path class="cls-19" d="M306.66,147.69l-7.4-15.37-.73,16a3.5,3.5,0,0,1-3.73,3.32l-19.12-1.33c-1.45-.07-3.94-1.23-3.79-2.68l1.62-18.76-12.1,11,7.72,10.46-7.78,6-10.93-14.06a3.44,3.44,0,0,1,.21-4.65l19.62-18.94a6.06,6.06,0,0,1,4.28-1.51l25.09,1.17a7.3,7.3,0,0,1,6.41,4.51l9.83,20.38a5.12,5.12,0,0,1-2.28,6.77h0A5.11,5.11,0,0,1,306.66,147.69Z"/><line class="cls-9" x1="241.26" y1="237.09" x2="331.36" y2="236.98"/><line class="cls-24" x1="299.26" y1="132.32" x2="299.61" y2="126.52"/><polygon class="cls-19" points="293.11 118.06 283.19 117.6 283.19 115.43 293.11 115.88 293.11 118.06"/><circle class="cls-10" cx="293.94" cy="114.36" r="4.36"/><line class="cls-14" x1="349.61" y1="144.78" x2="349.61" y2="225.75"/><rect class="cls-2" x="336.5" y="194.37" width="40.49" height="31.38"/><line class="cls-14" x1="360.18" y1="148.26" x2="372.75" y2="225.74"/><rect class="cls-10" x="356.74" y="194.37" width="20.25" height="31.38"/></svg>