<svg viewBox="0 0 600 490" xmlns="http://www.w3.org/2000/svg"><path d="m36.4 239.4h477.8v97.9h-477.8z" fill="#f3f3f2"/><path d="m55 256.2h64.3v64.3h-64.3z" fill="#aca29c"/><path d="m140.9 273.7h190.4v5.7h-190.4zm0 25.4h299.9v5.7h-299.9z" fill="#c2bbb5"/><path d="m36.4 6.1h477.8v97.9h-477.8z" fill="#f3f3f2"/><path d="m55 22.9h64.3v64.3h-64.3z" fill="#aca29c"/><path d="m140.9 40.4h225.3v5.7h-225.3zm0 25.4h271.6v5.7h-271.6z" fill="#c2bbb5"/><path d="m36.4 122.7h477.8v97.9h-477.8z" fill="#f3f3f2"/><path d="m55 139.5h64.3v64.3h-64.3z" fill="#87d5ee"/><path d="m140.9 157h225.3v5.7h-225.3zm0 25.5h206.4v5.7h-206.4z" fill="#c2bbb5"/><path d="m186.7 189.9c-6.2-6-19.9-16-27.1-17.9-5.9-1.6-4.3 2.8-1.3 5.1 2.1 1.5 10.4 9.9 12.7 13.2-8-2.2-10.3 3.2-10.6 6.1-4.3-.4-7.1 2.6-5.4 8.8-4.7.9-4.9 6.2-3.9 10.9.9 4.7 4.1 9.9 5.8 10.5s2.8-1 2.6-3.2c2 3.5 3.4 5.2 6.5 8.4l11.3 11.5 35.2-28.8zm234.7-29.7c7.1-4.4 4.1-12.8-.9-14.6-5-1.7-9.3 2.1-9.3 2.1s-6.7-7-9.4-11.5c-2.9-5-3.9-9.4-3.9-9.4.1-.3.1-.6.2-.9-.3 1.3-.6 2.6-.7 3.9l-1.5 16.3-3.7 6c-.4.6-.1 1.3.5 1.6l2 .9c.3.1.5.4.5.8.3 10.5 5.4 19.1 14.9 22.2v21.7h34v-30.9c-.7-.7-1.4-1.5-2-2.4" fill="#aca29c"/><circle cx="51.9" cy="138.3" fill="#31a38d" r="26"/><path d="m44.7 151.9-10-10.1 2.2-2.2 7.8 7.7 20.4-20.3 2.2 2.2z" fill="#fff"/><g fill="#292829"><circle cx="401.8" cy="147.2" r="1.8"/><path d="m459.2 132.8c-2.4 0-4.7.4-6.8 1.2.3-15.1-11.6-27.6-26.5-28.9-11.2-1-24 3.6-27.8 20.8-.1.3-.1.6-.2.9 0 0 1 4.4 3.9 9.4 2.7 4.5 9.4 11.5 9.4 11.5s4.3-3.8 9.3-2.1c4.5 1.6 7.4 8.6 2.8 13.1-1.1 1.1-2.9 2.3-5.5 3.3-.6.2-.9.9-.7 1.5.2.5.6.7 1.1.7.1 0 .3 0 .4-.1 1.8-.7 3.3-1.5 4.5-2.3 4.8 3.9 12.6 5.2 19 4.1.6.8 1.3 1.6 2 2.4 3.8 4 9.2 6.4 15.1 6.4 11.6 0 21-9.4 21-21s-9.4-20.9-21-20.9zm-57.8 33.5c-.5 0-1-.3-1.1-.9-.2-.6.2-1.3.8-1.4 5.2-1.4 6.4-4.5 6.4-4.5.2-.6.9-.9 1.5-.7s.9.9.7 1.5c-.1.2-1.5 4.3-8 6.1-.1-.2-.2-.1-.3-.1zm8.7 11.2s3 1 10.1.3c.4 0 .7.5.4.8-7.6 7.5-10.4 9.9-10.4 9.9zm-229.5 18.8c-.3 0-.6-.1-.8-.3s-2.8-2.6-9.2-4.5c-.6-.2-1-.9-.8-1.5s.9-1 1.5-.8c6.9 2.2 9.9 4.9 10 5.1.5.4.5 1.2.1 1.7-.2.1-.5.3-.8.3zm-5.7 6.8c-.2 0-.4-.1-.6-.2-7.4-4.3-14-5.3-14.1-5.4-.6-.1-1.1-.7-1-1.3s.7-1.1 1.3-1c.3 0 7.1 1.1 14.9 5.6.6.3.7 1 .4 1.6-.1.5-.5.7-.9.7zm-6.3 6.4c-.2 0-.4 0-.5-.1-.1 0-6.8-3.5-12.9-2.9-.6.1-1.2-.4-1.3-1s.4-1.2 1-1.3c6.9-.7 14 3 14.3 3.1.6.3.8 1 .5 1.6-.3.3-.7.6-1.1.6zm-9.1 15.1c-.4 0-.8-.2-1-.5-.1-.2-2.9-4.6-3.1-8 0-.6.4-1.2 1.1-1.2.6-.1 1.2.5 1.2 1.1.1 2.4 2 5.8 2.7 7 .3.5.2 1.3-.4 1.6-.1-.1-.3 0-.5 0z"/></g><path d="m501.4 377.9-11.8-41.4zm-5.3-83.2-7.3 39 .8 2.8 25.5-25.5z" fill="none"/><path d="m353.2 271.6-52.3 45.8c-18.3 16.1-46 14.9-62.9-2.7l-65.1-67.8 4.4-3.6 13.1-10.7-39.3-16.4 87.4 136.9c12.8 20 39.2 26.1 59.5 13.8l65.9-39.5-11.1-55.4z" opacity=".05"/><path d="m359 266.6-5.8 5-.4.4 11.1 55.4 1.3 6.2z" fill="#f38e7a"/><path d="m496.1 294.7 19 16.3-25.5 25.5 11.8 41.4 11.5 11.5-.1.1 6.8 6.8 50.3-49.7c19.2-19 19.2-50-.1-69l-68.1-67c-7.3-7.1-17-11.1-27.1-11.1h-112.4v-.1h-14.4c-10.1 0-19.8 4-27.1 11.1l-52.3 51.4-50.7-51.6-5.2 4.3-22.1 18.1-13.1 10.7-4.4 3.6 65.1 67.8c16.9 17.6 44.6 18.8 62.9 2.7l52.3-45.8 5.8-5 6.2 67 123.6.1z" fill="#fa9"/><path d="m512.9 389.4-11.5-11.5.1.2 5 17.7 6.3-6.3z" fill="#aca29c"/><path d="m501.4 377.9-11.8-41.4-.8-2.8-123.6-.1-.6 155.7h82v-59.2l11.5 59.2h75.1l-26.7-93.5-5-17.7z" fill="#504b4d"/><path d="m503.9 261.9-7.9 32.7 19.1 16.3z" fill="#f38e7a"/></svg>
